<?xml version="1.0" encoding="UTF-8"?> <svg xmlns="http://www.w3.org/2000/svg" width="60" height="60" fill="none"><mask id="a" width="60" height="60" x="0" y="0" maskUnits="userSpaceOnUse" style="mask-type:luminance"><path fill="#fff" d="M0 0h60v60H0V0Z"></path></mask><g stroke-linecap="round" stroke-linejoin="round" stroke-miterlimit="10" stroke-width="2" mask="url(#a)"><path stroke="#0A4B88" d="m30 1.76 6.55 3.78h7.57l3.78 6.56 6.56 3.78v7.57L58.24 30l-3.78 6.55v7.57L47.9 47.9l-3.78 6.56h-7.57L30 58.24l-6.55-3.78h-7.57L12.1 47.9l-6.56-3.78v-7.57L1.76 30l3.78-6.55v-7.57l6.56-3.78 3.78-6.56h7.57L30 1.76Z"></path><path stroke="#90E8F8" d="M24.35 41.3V26.23a6.81 6.81 0 0 0 3.77-6.09v-5.2h2.82a4.71 4.71 0 0 1 4.7 4.7v4.71h6.61a3.77 3.77 0 0 1 3.68 4.58l-2.1 9.42a3.77 3.77 0 0 1-3.67 2.95h-15.8ZM16.82 41.3h7.53V26.23h-7.53V41.3Z"></path></g></svg> 