<?xml version="1.0" encoding="UTF-8"?> <svg xmlns="http://www.w3.org/2000/svg" width="60" height="60" fill="none"><mask id="a" width="60" height="60" x="0" y="0" maskUnits="userSpaceOnUse" style="mask-type:luminance"><path fill="#fff" d="M0 0h60v60H0V0Z"></path></mask><g stroke-linecap="round" stroke-linejoin="round" stroke-miterlimit="10" stroke-width="2" mask="url(#a)"><path stroke="#0A4B88" d="M6.36 30.8 3 38.27C-.24 45.4 3.12 54 10.12 57h0a9.85 9.85 0 0 0 12.97-11.22 9.81 9.81 0 0 0-6.38-7.23C10 36.17 7.5 33.1 6.36 30.8Z"></path><path stroke="#0A4B88" d="M25.03 58.24 19.8 55.9A22.8 22.8 0 0 1 6.34 35.02l.02-4.22"></path><path stroke="#90E8F8" d="m13.7 18.57 2.9-7.66c2.75-7.33 11.2-11.03 18.27-8.2h0a9.85 9.85 0 0 1 1.24 17.1 9.81 9.81 0 0 1-9.62.6c-6.42-3.06-10.37-2.64-12.8-1.84Z"></path><path stroke="#90E8F8" d="m46.3 12.37-5.36-2.04a22.8 22.8 0 0 0-24.27 5.24l-2.98 3"></path><path stroke="#0A4B88" d="M53.64 30.8 57 38.27C60.24 45.4 56.88 54 49.88 57h0a9.85 9.85 0 0 1-12.97-11.22 9.81 9.81 0 0 1 6.38-7.23c6.7-2.37 9.2-5.45 10.35-7.74Z"></path><path stroke="#0A4B88" d="m34.97 58.24 5.23-2.35a22.8 22.8 0 0 0 13.45-20.87V30.8"></path></g></svg> 