<?xml version="1.0" encoding="UTF-8"?> <svg xmlns="http://www.w3.org/2000/svg" width="60" height="60" fill="none"><mask id="a" width="60" height="60" x="0" y="0" maskUnits="userSpaceOnUse" style="mask-type:luminance"><path fill="#fff" stroke="#fff" stroke-width="2" d="M59 59V1H1v58h58Z"></path></mask><g stroke-miterlimit="10" stroke-width="2" mask="url(#a)"><path stroke="#0A4B88" d="M23.09 24.73H51.2a7.03 7.03 0 0 1 7.03 7.03L23.1 35.27v21.1"></path><path stroke="#0A4B88" d="M5.5 56.37V17.7c0-7.77 6.3-14.07 14.07-14.07h34.98a3.7 3.7 0 0 1 .37 7.37l-31.83 3.18v10.55M23.09 35.27v21.1M23.09 24.73H5.5"></path><path stroke="#90E8F8" d="M54.73 52.85a3.52 3.52 0 0 1-7.03 0c0-1.94 3.51-7.03 3.51-7.03s3.52 5.09 3.52 7.03Z"></path><path stroke="#0A4B88" d="M0 56.37h28.36M54.73 32.1v6.69H47.7V32.8"></path></g></svg> 