<?xml version="1.0" encoding="UTF-8"?> <svg xmlns="http://www.w3.org/2000/svg" width="60" height="60" fill="none"><path stroke="#90E8F8" stroke-linejoin="round" stroke-miterlimit="10" stroke-width="2" d="m49.36 22.94.15-.14a3.65 3.65 0 0 0 0-5.17L34.7 2.83a3.65 3.65 0 0 0-5.17 0L9.42 22.93"></path><path stroke="#90E8F8" stroke-linejoin="round" stroke-miterlimit="10" stroke-width="2" d="m39.38 22.94.17-.17a3.53 3.53 0 0 1 0-4.99l-5-5a3.53 3.53 0 0 1-4.99 0L19.41 22.95"></path><path stroke="#0A4B88" stroke-linejoin="round" stroke-miterlimit="10" stroke-width="2" d="M50.2 22.94H9.8a4.52 4.52 0 0 0-4.51 4.52v26.26c0 2.5 2.02 4.52 4.52 4.52h40.38c2.5 0 4.52-2.02 4.52-4.52V27.46c0-2.5-2.02-4.52-4.52-4.52Z"></path><path stroke="#0A4B88" stroke-linejoin="round" stroke-miterlimit="10" stroke-width="2" d="M54.71 33.53H47.6a7 7 0 1 0 0 14.02h7.11"></path><path fill="#0A4B88" d="M47.65 42.3c.92 0 1.8-.81 1.76-1.76a1.79 1.79 0 0 0-1.76-1.76c-.92 0-1.8.81-1.76 1.76.05.95.78 1.76 1.76 1.76Z"></path></svg> 