<?xml version="1.0" encoding="UTF-8"?> <svg xmlns="http://www.w3.org/2000/svg" width="50" height="50" fill="none"><g stroke="#0A4B88" stroke-linecap="round" stroke-linejoin="round" stroke-miterlimit="10" stroke-width="2" clip-path="url(#a)"><path d="m32.7 12.41.88-4.9c.02-.12.18-.13.22-.02l1.44 4.89c.04.1.19.1.22 0l1.4-4.89c.03-.11.19-.1.21.01l.94 4.91M40.36 14.46c-.15-.19.25.5 1.53.44 1.45-.06 1.38-1.69 1.38-1.69V9.24"></path><path d="M41.57 12.64a1.7 1.7 0 1 0 0-3.4 1.7 1.7 0 0 0 0 3.4ZM12.67 20.11l-.95 1.48a14.5 14.5 0 0 0-1.94 4.48c-.26 1.82-.68 5.56-.28 5.96M38.06 31.41c.47-3.23-.15-6.69-2.17-9.82L24.49 3.96a.82.82 0 0 0-1.38 0l-2.78 4.3M13.55 39.5c2.54 2.6 6.1 4.28 10.25 4.28h0c3.21 0 6.07-1 8.37-2.66"></path><path d="M9.4 29.5c0 .94.1 1.88.3 2.8M14.26 24.36v7.08M19.16 24.36v7.08M14.26 27.78h4.9M30.59 31.13a3.54 3.54 0 1 0 0-7.08 3.54 3.54 0 0 0 0 7.08ZM25.48 36.3s-2.88.03-3.02-.02c-.13-.04.22-.28 2.11-2.98.36-.5.55-.93.63-1.3l.03-.22a1.52 1.52 0 0 0-3-.3M6.5 35.22v5.33M9.37 35.28l-2.7 2.48 2.89 2.79M39.44 37.12a2.67 2.67 0 1 0-1.5 4.88 2.14 2.14 0 0 0 1.68-.76M43.24 41.76a1.8 1.8 0 1 0 0-3.6 1.8 1.8 0 0 0 0 3.6ZM45.04 37.92V42"></path><path d="M40.16 47.52a8.19 8.19 0 1 0 0-16.38 8.19 8.19 0 0 0 0 16.38ZM10.57 32.3H5.49c-.43 0-.82.22-1.03.6l-2.54 4.39a1.2 1.2 0 0 0 0 1.19l2.54 4.4c.21.36.6.6 1.03.6h5.08c.42 0 .82-.24 1.03-.6l2.54-4.4a1.2 1.2 0 0 0 0-1.2L11.6 32.9a1.2 1.2 0 0 0-1.03-.6ZM4.32 13.48a8.46 8.46 0 1 0-.05-3.42"></path><path d="M7.7 14.32V8.78l3.75 5.43c.07.1.15.05.15-.07l-.06-5.37M15.59 14.07a1.88 1.88 0 1 0 0-3.75 1.88 1.88 0 0 0 0 3.75ZM17.46 10.07v4.25M3.69 27.24a2.95 2.95 0 1 0 0-5.91 2.95 2.95 0 0 0 0 5.9ZM47.24 22.59h-2.76a.65.65 0 0 0-.56.32l-1.38 2.4a.65.65 0 0 0 0 .64l1.38 2.4c.11.2.33.32.56.32h2.76c.23 0 .44-.13.56-.33l1.38-2.39a.65.65 0 0 0 0-.65l-1.38-2.39a.65.65 0 0 0-.56-.32ZM34.75 19.83h7.45c.49 0 .94-.26 1.19-.68l4.21-7.3c.25-.43.25-.95 0-1.38l-4.21-7.3c-.25-.42-.7-.69-1.2-.69h-2.74"></path><path d="M40 2.48h-6.23c-.5 0-.95.27-1.2.7l-4.05 7.01"></path></g><defs><clipPath id="a"><path fill="#fff" d="M0 0h50v50H0z"></path></clipPath></defs></svg> 