<?xml version="1.0" encoding="UTF-8"?> <svg xmlns="http://www.w3.org/2000/svg" width="50" height="50" fill="none"><path stroke="#0A4B88" stroke-miterlimit="10" stroke-width="2" d="M7.5 20 29.7 42M42 29.5l-22-22M34.3 30.2l-2-2M28.1 32.3l-2-2.1M28.1 24l-2-2.1M21.9 26l-2-2M21.9 17.7l-2-2M28.6 43.8l4.1 4.1 15.2-15.2-4.1-4.1-15.2 15.2ZM2 17.3l4.2 4.1L21.4 6.2l-4.1-4.1L2 17.3Z"></path><path stroke="#0A4B88" stroke-miterlimit="10" stroke-width="2" d="m38.2 42.4 4.2 4.1 4.1-4.1-4.1-4.2-4.2 4.2ZM3.5 7.6l4.1 4.2 4.2-4.2-4.2-4.1-4.1 4.1Z"></path></svg> 