<?xml version="1.0" encoding="UTF-8"?> <svg xmlns="http://www.w3.org/2000/svg" width="50" height="50" fill="none"><mask id="a" width="50" height="50" x="0" y="0" maskUnits="userSpaceOnUse" style="mask-type:luminance"><path fill="#fff" stroke="#fff" stroke-width="2" d="M49 49V1H1v48h48Z"></path></mask><g stroke="#0A4B88" stroke-miterlimit="10" stroke-width="2" mask="url(#a)"><path d="M19.24 20.6h23.44a5.86 5.86 0 0 1 5.86 5.86l-29.3 2.93v17.58"></path><path d="M4.59 46.97V14.75c0-6.48 5.25-11.72 11.72-11.72h29.15a3.08 3.08 0 0 1 .3 6.13l-26.52 2.66v8.79M19.24 29.4v17.57M19.24 20.6H4.59M45.6 44.04a2.93 2.93 0 0 1-5.85 0c0-1.62 2.93-5.86 2.93-5.86s2.93 4.24 2.93 5.86ZM0 46.97h23.63M45.6 26.76v5.56h-5.85v-4.98"></path></g></svg> 