<svg xmlns="http://www.w3.org/2000/svg" width="45" height="61" fill="none"><path fill="url(#a)" fill-rule="evenodd" d="M44.8 38.8A22.3 22.3 0 0 1 22.4 60 22.5 22.5 0 0 1 0 38c0-1.6 0-4.8 2.4-10.1 1.4-3.2 2.3-5.3 2.8-7.1.3-1 .9-2.6 2.4 0 1 1.5 1 3.8 1 3.8s3.4-2.6 5.7-7.6c3.4-7.2.7-11.6-.2-14.6-.4-1-.6-3 1.6-2.1C18 1 24 5 27 9.4c4.4 6.1 6 12 6 12s1.4-1.7 1.9-3.5c.6-2 .6-4.1 2.4-2 1.7 2.2 4.3 6 5.7 9.7 2.6 6.8 1.9 13.2 1.9 13.2Z" clip-rule="evenodd"/><path fill="#FC9502" fill-rule="evenodd" d="M22.4 60C13.8 60 7 53.2 7 44.7c0-5 2-8.2 6.4-12.4a35 35 0 0 0 6.5-8.2c.2-.5.7-2.8 2.6 0 1 1.3 2.6 3.9 3.6 6 1.7 3.7 2.1 7.3 2.1 7.3s1.7-1 2.9-3.5c.4-.8 1.1-4 3.2-.8 1.6 2.2 3.7 6.3 3.7 11.6 0 8.5-7 15.3-15.5 15.3Z" clip-rule="evenodd"/><path fill="#FCE202" fill-rule="evenodd" d="M22.6 43.3c2.2 0 2.2 4 5 9.4 2 3.6-.9 7.3-5 7.3-4 0-6.2-3.2-6.2-7.3 0-4 4-9.4 6.2-9.4Z" clip-rule="evenodd"/><defs><linearGradient id="a" x1="22.4" x2="22.4" y1="60.1" y2="0" gradientUnits="userSpaceOnUse"><stop stop-color="#FF4C0D"/><stop offset="1" stop-color="#FC9502"/></linearGradient></defs></svg>