<svg xmlns="http://www.w3.org/2000/svg" width="64" height="12" viewBox="0 0 64 12" fill="none">
  <path d="M11.7182 12C11.7792 12 11.8408 11.9995 11.9018 11.9985C16.1674 11.953 20.1928 10.3332 23.2358 7.43816C28.0248 2.70382 36.1513 2.59507 40.9403 7.32942C43.9501 10.2487 47.9217 11.8537 52.1312 11.8537H52.2035C56.4427 11.8349 60.431 10.1904 63.4334 7.22216C64.1751 6.48912 64.1908 5.28452 63.4676 4.53221C62.7454 3.7794 61.5579 3.76408 60.8162 4.49711C56.0731 9.18599 48.3192 9.22306 43.5316 4.57867C37.2997 -1.58171 26.9027 -1.49818 20.6708 4.6627C18.3144 6.90433 15.1865 8.15884 11.8623 8.19443C8.5273 8.22854 5.4443 7.01851 3.18356 4.78331C2.44186 4.05027 1.25485 4.0656 0.532198 4.81791C-0.190457 5.57072 -0.17532 6.77531 0.566378 7.50835C3.50045 10.4089 7.45455 12 11.7182 12Z" fill="#B0D4F2"/>
</svg>