<?xml version="1.0" encoding="UTF-8"?> <svg xmlns="http://www.w3.org/2000/svg" width="50" height="50" fill="none"><path stroke="#0A4B88" stroke-miterlimit="10" stroke-width="2" d="m7.46 19.9 22.23 22.24M41.95 29.5 19.94 7.48M34.34 30.18l-2.08-2.07M28.1 32.26l-2.07-2.08M28.1 23.96l-2.07-2.08M21.88 26.03l-2.07-2.07M21.88 17.73l-2.07-2.07M28.55 43.77l4.15 4.15 15.22-15.21-4.15-4.16-15.22 15.22ZM2.08 17.3l4.15 4.15L21.45 6.23l-4.16-4.15L2.08 17.29ZM38.24 42.4l4.15 4.14 4.15-4.15-4.15-4.15-4.15 4.15Z"></path><path stroke="#0A4B88" stroke-miterlimit="10" stroke-width="2" d="m3.46 7.61 4.15 4.15 4.15-4.15-4.15-4.15L3.46 7.6Z"></path></svg> 