<?xml version="1.0" encoding="UTF-8"?> <svg xmlns="http://www.w3.org/2000/svg" width="50" height="50" fill="none"><g clip-path="url(#a)"><mask id="b" width="50" height="50" x="0" y="0" maskUnits="userSpaceOnUse" style="mask-type:luminance"><path fill="#fff" d="M0 0h50v50H0V0Z"></path></mask><g mask="url(#b)"><path stroke="#0A4B88" stroke-linecap="round" stroke-linejoin="round" stroke-miterlimit="10" stroke-width="2" d="m30.76 48.54-11.72-3.91V5.37l11.72-3.9v47.07ZM39.75 25h8.79M44.63 21.1l3.9 3.9-3.9 3.9M36.82 12.3h8.79M41.7 8.4l3.9 3.9-3.9 3.91M36.82 37.7h8.79M41.7 41.6l3.9-3.9-3.9-3.91"></path><path fill="#0A4B88" d="M2.93 17.19a1.46 1.46 0 1 1-2.93 0 1.46 1.46 0 0 1 2.93 0ZM10.25 11.82a1.46 1.46 0 1 1-2.93 0 1.46 1.46 0 0 1 2.93 0ZM14.16 20.6a1.46 1.46 0 1 1-2.93 0 1.46 1.46 0 0 1 2.93 0ZM2.93 32.81a1.46 1.46 0 1 0-2.93 0 1.46 1.46 0 0 0 2.93 0ZM10.25 38.18a1.46 1.46 0 1 0-2.93 0 1.46 1.46 0 0 0 2.93 0ZM14.16 29.4a1.46 1.46 0 1 0-2.93 0 1.46 1.46 0 0 0 2.93 0ZM6.35 25a1.46 1.46 0 1 1-2.93 0 1.46 1.46 0 0 1 2.93 0ZM26.37 25a1.46 1.46 0 1 1-2.93 0 1.46 1.46 0 0 1 2.93 0ZM26.37 11.82a1.46 1.46 0 1 1-2.93 0 1.46 1.46 0 0 1 2.93 0ZM26.37 38.18a1.46 1.46 0 1 0-2.93 0 1.46 1.46 0 0 0 2.93 0Z"></path></g></g><defs><clipPath id="a"><path fill="#fff" d="M0 0h50v50H0z"></path></clipPath></defs></svg> 