<?xml version="1.0" encoding="UTF-8"?> <svg xmlns="http://www.w3.org/2000/svg" width="50" height="50" fill="none"><g stroke="#0A4B88" stroke-linecap="round" stroke-linejoin="round" stroke-miterlimit="10" stroke-width="2" clip-path="url(#a)"><path d="M32.71 48.535c8.74 0 15.825-7.085 15.825-15.825 0-8.74-7.085-15.825-15.825-15.825-8.74 0-15.825 7.085-15.825 15.825 0 8.74 7.085 15.825 15.825 15.825Z"></path><path d="M17.29 48.535c8.74 0 15.825-7.085 15.825-15.825 0-8.74-7.085-15.825-15.825-15.825-8.74 0-15.825 7.085-15.825 15.825 0 8.74 7.085 15.825 15.825 15.825Z"></path><path d="M25 33.115c8.74 0 15.825-7.085 15.825-15.825C40.825 8.55 33.74 1.465 25 1.465c-8.74 0-15.825 7.085-15.825 15.825 0 8.74 7.085 15.825 15.825 15.825Z"></path></g><defs><clipPath id="a"><path fill="#fff" d="M0 0h50v50H0z"></path></clipPath></defs></svg> 