<?xml version="1.0" encoding="UTF-8"?> <svg xmlns="http://www.w3.org/2000/svg" width="50" height="50" fill="none"><g clip-path="url(#a)"><mask id="b" width="50" height="50" x="0" y="0" maskUnits="userSpaceOnUse" style="mask-type:luminance"><path fill="#fff" stroke="#fff" stroke-width="2" d="M49 49V1H1v48h48Z"></path></mask><g mask="url(#b)"><path stroke="#0A4B88" stroke-linecap="round" stroke-linejoin="round" stroke-miterlimit="10" stroke-width="2" d="M40.13 48.54H9.87v-5.89h30.26v5.89Z"></path></g><path stroke="#0A4B88" stroke-linecap="round" stroke-linejoin="round" stroke-miterlimit="10" stroke-width="2" d="M40.13 36.77H9.87l5.04-29.42H35.1l5.04 29.42Z"></path><path stroke="#0A4B88" stroke-linecap="round" stroke-linejoin="round" stroke-miterlimit="10" stroke-width="2" d="M32.56 36.77H17.44l2.52-29.42h10.08l2.52 29.42Z"></path><path stroke="#0A4B88" stroke-linecap="round" stroke-linejoin="round" stroke-miterlimit="10" stroke-width="2" d="M42.65 42.65H7.35v-5.88h35.3v5.88Z"></path><mask id="c" width="50" height="50" x="0" y="0" maskUnits="userSpaceOnUse" style="mask-type:luminance"><path fill="#fff" stroke="#fff" stroke-width="2" d="M49 49V1H1v48h48Z"></path></mask><g mask="url(#c)"><path stroke="#0A4B88" stroke-linecap="round" stroke-linejoin="round" stroke-miterlimit="10" stroke-width="2" d="M37.6 7.35H12.4V1.46h25.2v5.89Z"></path></g><path stroke="#0A4B88" stroke-linejoin="round" stroke-miterlimit="10" stroke-width="2" d="M25 7.35v29.42"></path></g><defs><clipPath id="a"><path fill="#fff" d="M0 0h50v50H0z"></path></clipPath></defs></svg> 