<?xml version="1.0" encoding="UTF-8"?> <svg xmlns="http://www.w3.org/2000/svg" width="56" height="56" fill="none" viewBox="0 0 56 56"><mask id="a" width="56" height="56" x="0" y="0" maskUnits="userSpaceOnUse" style="mask-type:luminance"><path fill="#fff" d="M0 0h56v56H0z"></path></mask><g mask="url(#a)"><path stroke="#0c3256" stroke-linecap="round" stroke-linejoin="round" stroke-miterlimit="10" stroke-width="2" d="M44.4 54.36h-35v-2.4a4.4 4.4 0 0 1 4.38-4.38h26.25a4.37 4.37 0 0 1 4.38 4.37zM42.77 37.73h4.28c1.62 0 3-1.18 3.24-2.79l2.83-18.86a3.05 3.05 0 0 0-3.02-3.5h-8.73"></path><path stroke="#0c3256" stroke-linecap="round" stroke-linejoin="round" stroke-miterlimit="10" stroke-width="2" d="M41.35 12.34A4.4 4.4 0 0 0 37 8.2H16.83a4.4 4.4 0 0 0-4.37 4.14l-.02.24h-9.6l9.1 9.1-1.25 22.43a3.3 3.3 0 0 0 3.28 3.47h25.87a3.3 3.3 0 0 0 3.28-3.47z"></path><path stroke="#90e8f8" stroke-linecap="round" stroke-linejoin="round" stroke-miterlimit="10" stroke-width="2" d="M21.44 41.02a3.3 3.3 0 0 1-3.28-3.29V18.05a3.28 3.28 0 0 1 6.56 0v19.68a3.3 3.3 0 0 1-3.28 3.29"></path><path fill="#90e8f8" d="M32.92 24.6a1.64 1.64 0 1 1-3.28 0 1.64 1.64 0 0 1 3.28 0M32.92 18.05a1.64 1.64 0 1 1-3.28 0 1.64 1.64 0 0 1 3.28 0M32.92 31.17a1.64 1.64 0 1 1-3.28 0 1.64 1.64 0 0 1 3.28 0M32.92 37.73a1.64 1.64 0 1 1-3.28 0 1.64 1.64 0 0 1 3.28 0"></path><path stroke="#0c3256" stroke-linecap="round" stroke-linejoin="round" stroke-miterlimit="10" stroke-width="2" d="M32.38 1.64H21.44a4.4 4.4 0 0 0-4.38 4.38V8.2h19.69V6.02a4.4 4.4 0 0 0-4.37-4.38"></path></g></svg> 