<?xml version="1.0" encoding="UTF-8"?> <svg xmlns="http://www.w3.org/2000/svg" width="56" height="56" fill="none" viewBox="0 0 56 56"><path stroke="#90e8f8" stroke-linejoin="round" stroke-miterlimit="10" stroke-width="2" d="M26.9 14.78a13.1 13.1 0 0 0-9.92.69 13.2 13.2 0 0 1-10.69.4M14.43 38.76a3.6 3.6 0 0 1-.2-4.9l2.75-3.23 2.76 3.23a3.61 3.61 0 0 1-5.31 4.9Z"></path><path stroke="#0c3256" stroke-linejoin="round" stroke-miterlimit="10" stroke-width="2" d="M24.44 1.2H9.52a2.62 2.62 0 1 0 0 5.25h14.92a2.62 2.62 0 1 0 0-5.25ZM28.85 18.28a12 12 0 0 0-2.23-3.83c-1.9-2.2-2.94-5-2.94-7.9v-.1h-13.4v.1c0 2.9-1.04 5.7-2.94 7.9s-2.94 5-2.94 7.91V47.8a7 7 0 0 0 7.01 7h11.14a7 7 0 0 0 7.01-7v-8.7M4.4 45.17h25.16M24.8 24.98H4.4M35.6 32.07h-4.8v-8.75h4.8zM35.6 32.07a3.4 3.4 0 0 1 1.92 3.05v1.93h1.71a3.1 3.1 0 0 0 3.1-3.1V33c2.23 0 4.03-1.8 4.03-4.03v-1.63c0-2.22-1.8-4.02-4.03-4.02h-6.72z"></path><path stroke="#90e8f8" stroke-linejoin="round" stroke-miterlimit="10" stroke-width="2" d="M37.98 14.77a13.62 13.62 0 1 1 0 27.24 13.62 13.62 0 0 1 0-27.24Z"></path></svg> 