<?xml version="1.0" encoding="UTF-8"?> <svg xmlns="http://www.w3.org/2000/svg" width="56" height="56" fill="none" viewBox="0 0 56 56"><path stroke="#0c3256" stroke-linecap="round" stroke-linejoin="round" stroke-miterlimit="10" stroke-width="2" d="M12.24 24.74v17.7M23.46 6.84v3.7l-8.28 2.82a4.3 4.3 0 0 0-2.94 4.1M43.76 17.44c0-1.84-1.18-3.49-2.93-4.09l-8.19-2.8V6.83M43.76 42.44V24.9M12.24 50.1v2.78c0 1.06.86 1.92 1.92 1.92h27.68c1.06 0 1.92-.86 1.92-1.92v-2.9M21.33 24.51h-9.77a1.84 1.84 0 0 1-1.84-1.83v-3.2c0-1.02.83-1.84 1.84-1.84h32.88c1.01 0 1.84.82 1.84 1.83v3.2c0 1.02-.83 1.84-1.84 1.84h-9.78M34.54 42.81h9.9c1.01 0 1.84.82 1.84 1.84v3.2c0 1.01-.83 1.83-1.84 1.83H11.56a1.84 1.84 0 0 1-1.84-1.83v-3.2c0-1.02.83-1.84 1.84-1.84h9.95"></path><path stroke="#0c3256" stroke-linecap="round" stroke-linejoin="round" stroke-miterlimit="10" stroke-width="2" d="M28 44.75a11.14 11.14 0 1 0 0-22.29 11.14 11.14 0 0 0 0 22.29"></path><path stroke="#90e8f8" stroke-linecap="round" stroke-linejoin="round" stroke-miterlimit="10" stroke-width="2" d="M33.64 6.63H22.3c-.81 0-1.47-.66-1.47-1.47v-2.5c0-.8.66-1.46 1.47-1.46h11.34c.8 0 1.46.66 1.46 1.47v2.5c0 .8-.66 1.46-1.46 1.46M24.97 37.58a4.3 4.3 0 0 1-.27-5.77l3.3-3.98 3.3 3.98a4.3 4.3 0 0 1-6.33 5.77"></path></svg> 