<?xml version="1.0" encoding="UTF-8"?> <svg xmlns="http://www.w3.org/2000/svg" width="56" height="56" fill="none" viewBox="0 0 56 56"><path stroke="#0c3256" stroke-linecap="round" stroke-linejoin="round" stroke-miterlimit="10" stroke-width="2" d="M19.21 29.1H1.64v21.98h17.57z"></path><path stroke="#0c3256" stroke-linecap="round" stroke-linejoin="round" stroke-miterlimit="10" stroke-width="2" d="M36.79 29.1H19.2v21.98H36.8z"></path><path stroke="#0c3256" stroke-linecap="round" stroke-linejoin="round" stroke-miterlimit="10" stroke-width="2" d="M54.36 4.92H36.79v46.16h17.57zM36.79 19.5h17.57"></path><path stroke="#90e8f8" stroke-linecap="round" stroke-linejoin="round" stroke-miterlimit="10" stroke-width="2" d="M8.26 35.66h4.34M25.83 42.22h4.34"></path><path stroke="#0c3256" stroke-linecap="round" stroke-linejoin="round" stroke-miterlimit="10" stroke-width="2" d="M19.25 35.66h17.5"></path><path stroke="#90e8f8" stroke-linecap="round" stroke-linejoin="round" stroke-miterlimit="10" stroke-width="2" d="M43.35 12.9h3.9"></path><path stroke="#0c3256" stroke-linecap="round" stroke-linejoin="round" stroke-miterlimit="10" stroke-width="1.6" d="M2.57 16.7v6.53M6.7 10.08v1.37l-3.05 1.04A1.6 1.6 0 0 0 2.57 14M14.2 14a1.6 1.6 0 0 0-1.07-1.51l-3.03-1.04v-1.37M14.2 23.23v-6.47M2.57 26.06v1.03c0 .39.31.7.7.7H13.5c.39 0 .7-.31.7-.7v-1.07"></path><path stroke="#0c3256" stroke-linecap="round" stroke-linejoin="round" stroke-miterlimit="10" stroke-width="1.6" d="M10.87 17H2.65c-.36 0-.65-.36-.65-.8v-1.4c0-.44.3-.8.65-.8h11.7c.36 0 .65.36.65.8v1.4c0 .44-.3.8-.65.8zM10.8 23.37h3.66c.37 0 .68.3.68.68v1.18c0 .38-.3.68-.68.68H2.31a.7.7 0 0 1-.67-.68v-1.18c0-.38.3-.68.67-.68z"></path><path stroke="#90e8f8" stroke-linecap="round" stroke-linejoin="round" stroke-miterlimit="10" stroke-width="1.6" d="M10.47 10H6.28a.54.54 0 0 1-.54-.54v-.92c0-.3.24-.54.54-.54h4.19c.3 0 .54.24.54.54v.92c0 .3-.24.54-.54.54"></path></svg> 