<?xml version="1.0" encoding="UTF-8"?> <svg xmlns="http://www.w3.org/2000/svg" width="60" height="61" fill="none"><path fill="#0A4B88" d="M57 12h-8.8v-1.7c0-.5-.2-1-.5-1.3-.4-.3-.8-.5-1.3-.5h-.9V5.4a3.1 3.1 0 0 0-3.2-3.2H17.7c-.8 0-1.6.3-2.2 1-.6.5-1 1.3-1 2.2v3.1h-.8c-.5 0-1 .2-1.3.5-.3.4-.5.8-.5 1.3v1.6H3c-.3 0-.5.1-.6.3-.2.1-.3.4-.3.6v7.7c0 .2.1.5.3.6.1.2.3.3.6.3h3.4v2.2c0 .5.2 1 .5 1.3.3.4.7.6 1.1.7l.7 30.6c0 .7.3 1.3.8 1.8s1.2.8 2 .8h10.8a2.8 2.8 0 0 0 2.7-2.7l.7-30.5a2 2 0 0 0 1.1-.7c.3-.3.5-.8.5-1.3v-2.2h5.4v2.2c0 .5.2 1 .5 1.3.3.4.7.6 1.1.7l.7 30.6c0 .7.3 1.3.8 1.8s1.2.8 2 .8h10.8a2.8 2.8 0 0 0 2.7-2.7l.7-30.5A2 2 0 0 0 53 25c.3-.3.5-.8.5-1.3v-2.2H57c.3 0 .5-.1.6-.3.2-.1.3-.4.3-.6v-7.7c0-.2-.1-.5-.3-.6a.8.8 0 0 0-.6-.3Zm-10.5-1.7v1.6h-6.7V10.2H46.6ZM22 11.9v-1.6c0-.5-.2-1-.5-1.3-.4-.3-.8-.5-1.3-.5h-.9V7h21.6v1.5h-1c-.4 0-.8.2-1.2.5-.3.4-.5.8-.5 1.3v1.6H22ZM16 5.4c0-.4.2-.8.4-1.1.3-.3.7-.5 1.1-.5h24.8c.4 0 .8.2 1 .5.3.3.5.7.5 1v3.2h-1.5V6.2c0-.2 0-.4-.2-.6a.8.8 0 0 0-.6-.2H18.4c-.2 0-.4 0-.6.2l-.2.6v2.3h-1.5V5.4Zm-2.6 4.9v-.1H20.3V12h-6.7v-1.6Zm8.8 46.9H11.4a1 1 0 0 1-.7-.3 1 1 0 0 1-.3-.8l-.7-30.4H24L23.3 56c0 .3 0 .6-.3.8a1 1 0 0 1-.7.3Zm3.3-33.6v.3l-.3.1H8.4l-.2-.1-.1-.3v-2.2h17.5v2.2Zm23 33.6H37.7a1 1 0 0 1-.7-.3 1 1 0 0 1-.3-.8L36 25.7h14.3L49.6 56c0 .3 0 .6-.3.8a1 1 0 0 1-.7.3Zm3.3-33.6v.3l-.3.1H34.7l-.2-.1-.1-.3v-2.2h17.5v2.2Zm4.3-4H3.8v-6h52.4v6Z"></path><path fill="#0A4B88" d="M43.1 31.3c-.2 0-.4.1-.5.3-.2.1-.3.3-.3.6v18.5l.3.6a.8.8 0 0 0 1.1 0l.3-.6V32.2c0-.3-.1-.5-.3-.6a.8.8 0 0 0-.6-.3ZM16.9 31.3c-.3 0-.5.1-.6.3-.2.1-.3.3-.3.6v18.5l.3.6a.8.8 0 0 0 1.1 0l.3-.6V32.2c0-.3-.1-.5-.3-.6a.8.8 0 0 0-.5-.3Z"></path></svg> 