<svg xmlns="http://www.w3.org/2000/svg" width="50" height="50" fill="none" viewBox="0 0 50 50"><path fill="#90e8f8" d="M23.79.92a2 2 0 0 1 2.42 0l4.183 3.18a2 2 0 0 0 1.369.403L37 4.089a2 2 0 0 1 2.037 1.308l1.8 4.938a2 2 0 0 0 .933 1.077l4.63 2.484a2 2 0 0 1 1.006 2.202l-1.155 5.126a2 2 0 0 0 .203 1.412l2.553 4.593a2 2 0 0 1-.345 2.396l-3.743 3.688a2 2 0 0 0-.593 1.297l-.335 5.244a2 2 0 0 1-1.586 1.83l-5.142 1.078a2 2 0 0 0-1.2.771l-3.117 4.23a2 2 0 0 1-2.323.682l-4.91-1.873a2 2 0 0 0-1.426 0l-4.91 1.873a2 2 0 0 1-2.322-.682l-3.118-4.23a2 2 0 0 0-1.2-.77l-5.142-1.08a2 2 0 0 1-1.586-1.83l-.335-5.243a2 2 0 0 0-.593-1.297l-3.743-3.688a2 2 0 0 1-.345-2.396l2.553-4.593a2 2 0 0 0 .203-1.412l-1.155-5.126a2 2 0 0 1 1.005-2.202l4.631-2.484a2 2 0 0 0 .934-1.078l1.8-4.937A2 2 0 0 1 13 4.09l5.238.414a2 2 0 0 0 1.369-.402z"/><g clip-path="url(#a)"><mask id="b" width="26" height="23" x="12" y="14" maskUnits="userSpaceOnUse" style="mask-type:luminance"><path fill="#fff" d="M12.895 14h24.21v23h-24.21z"/></mask><g mask="url(#b)"><path fill="#2a5961" d="M25.898 29.094a.898.898 0 1 1-1.796 0 .898.898 0 0 1 1.796 0"/><path stroke="#2a5961" stroke-miterlimit="10" stroke-width="2" d="M25 21.008v5.39M35.075 24.23l-8.804-8.805A1.8 1.8 0 0 0 25 14.898c-.496 0-.945.202-1.27.527l-8.805 8.804a1.8 1.8 0 0 0-.527 1.271c0 .496.202.945.527 1.27l8.804 8.805c.326.325.775.527 1.271.527s.945-.202 1.27-.527l8.805-8.804c.325-.326.527-.775.527-1.271s-.202-.945-.527-1.27Z"/></g></g><defs><clipPath id="a"><path fill="#fff" d="M13 13h24v24H13z"/></clipPath></defs></svg>