<svg xmlns="http://www.w3.org/2000/svg" width="40" height="40" fill="none"><path fill="#90E8F8" d="M18.79.92a2 2 0 0 1 2.42 0l2.98 2.27a2 2 0 0 0 1.37.4l3.74-.3a2 2 0 0 1 2.03 1.31l1.29 3.52a2 2 0 0 0 .93 1.08l3.3 1.77a2 2 0 0 1 1 2.2l-.82 3.66a2 2 0 0 0 .2 1.41l1.83 3.28a2 2 0 0 1-.35 2.4l-2.67 2.62a2 2 0 0 0-.59 1.3l-.24 3.74a2 2 0 0 1-1.58 1.83l-3.67.77a2 2 0 0 0-1.2.77l-2.22 3.02a2 2 0 0 1-2.33.68l-3.5-1.34a2 2 0 0 0-1.42 0l-3.5 1.34a2 2 0 0 1-2.33-.68l-2.22-3.02a2 2 0 0 0-1.2-.77l-3.67-.77a2 2 0 0 1-1.58-1.83l-.24-3.74a2 2 0 0 0-.6-1.3L1.3 23.91a2 2 0 0 1-.35-2.4l1.82-3.27a2 2 0 0 0 .2-1.4l-.82-3.66a2 2 0 0 1 1-2.2L6.46 9.2a2 2 0 0 0 .93-1.08L8.67 4.6a2 2 0 0 1 2.03-1.3l3.74.29a2 2 0 0 0 1.37-.4L18.79.92Z"/><path stroke="#2A5961" stroke-linecap="round" stroke-linejoin="round" stroke-width="2" d="M25.33 16.06 18 23.39l-3.33-3.33"/></svg>