<svg xmlns="http://www.w3.org/2000/svg" width="49" height="49" fill="none"><path fill="#90E8F8" d="M23 .4a2 2 0 0 1 2.5 0l4.2 3.2c.3.3.8.4 1.3.4l5.3-.4a2 2 0 0 1 2 1.3l1.8 5c.2.4.5.8 1 1l4.6 2.5a2 2 0 0 1 1 2.2l-1.2 5.1c-.1.5 0 1 .2 1.4l2.6 4.6a2 2 0 0 1-.4 2.4l-3.7 3.7a2 2 0 0 0-.6 1.3l-.4 5.2a2 2 0 0 1-1.5 1.9l-5.2 1a2 2 0 0 0-1.2.8l-3.1 4.3a2 2 0 0 1-2.3.6l-5-1.8a2 2 0 0 0-1.4 0l-4.9 1.8a2 2 0 0 1-2.3-.6L13.2 43a2 2 0 0 0-1.2-.8l-5.1-1a2 2 0 0 1-1.6-1.9l-.4-5.2c0-.5-.2-1-.6-1.3L.6 29.1a2 2 0 0 1-.3-2.4l2.5-4.6c.2-.4.3-1 .2-1.4L2 15.6a2 2 0 0 1 1-2.2l4.6-2.5a2 2 0 0 0 1-1l1.7-5a2 2 0 0 1 2-1.3l5.3.4c.5 0 1-.1 1.4-.4L23 .4Z"/></svg>