<?xml version="1.0" encoding="UTF-8"?> <svg xmlns="http://www.w3.org/2000/svg" width="24" height="24" fill="none"><g clip-path="url(#a)"><mask id="b" width="24" height="24" x="0" y="0" maskUnits="userSpaceOnUse" style="mask-type:luminance"><path fill="#fff" d="M0 0h24v24H0V0Z"></path></mask><g mask="url(#b)"><path stroke="#2A5961" stroke-linecap="round" stroke-linejoin="round" stroke-miterlimit="10" stroke-width="1.5" d="m14.77 23.3-5.63-1.88V2.58L14.77.7v22.6ZM19.08 12h4.22M21.42 10.13 23.3 12l-1.88 1.88M17.67 5.9h4.22M20.02 4.03l1.87 1.88-1.87 1.87M17.67 18.1h4.22M20.02 19.97l1.87-1.88-1.87-1.87"></path><path fill="#2A5961" d="M1.4 8.25a.7.7 0 1 1-1.4 0 .7.7 0 0 1 1.4 0ZM4.92 5.67a.7.7 0 1 1-1.4 0 .7.7 0 0 1 1.4 0ZM6.8 9.9a.7.7 0 1 1-1.41 0 .7.7 0 0 1 1.4 0ZM1.4 15.75a.7.7 0 1 0-1.4 0 .7.7 0 0 0 1.4 0ZM4.92 18.33a.7.7 0 1 0-1.4 0 .7.7 0 0 0 1.4 0ZM6.8 14.1a.7.7 0 1 0-1.41 0 .7.7 0 0 0 1.4 0ZM3.05 12a.7.7 0 1 1-1.4 0 .7.7 0 0 1 1.4 0ZM12.66 12a.7.7 0 1 1-1.41 0 .7.7 0 0 1 1.4 0ZM12.66 5.67a.7.7 0 1 1-1.41 0 .7.7 0 0 1 1.4 0ZM12.66 18.33a.7.7 0 1 0-1.41 0 .7.7 0 0 0 1.4 0Z"></path></g></g><defs><clipPath id="a"><path fill="#fff" d="M0 0h24v24H0z"></path></clipPath></defs></svg> 