<?xml version="1.0" encoding="UTF-8"?> <svg xmlns="http://www.w3.org/2000/svg" width="24" height="24" fill="none"><mask id="a" width="24" height="24" x="0" y="0" maskUnits="userSpaceOnUse" style="mask-type:luminance"><path fill="#fff" d="M0 0h24v24H0V0Z"></path></mask><g stroke="#2A5961" stroke-miterlimit="10" stroke-width="1.5" mask="url(#a)"><path d="M8 7.9a2.8 2.8 0 1 1-5.7 0c0-1.6 2.8-5.2 2.8-5.2S8 6.3 8 7.9ZM21.7 5a2 2 0 1 1-4.1 0c0-1.2 2-3.8 2-3.8s2 2.6 2 3.7ZM18.6 17.8a5.5 5.5 0 0 1-11 0c0-3 5.5-10.3 5.5-10.3s5.5 7.2 5.5 10.3Z"></path></g></svg> 