<?xml version="1.0" encoding="UTF-8"?> <svg xmlns="http://www.w3.org/2000/svg" width="24" height="24" fill="none"><g clip-path="url(#a)"><mask id="b" width="24" height="24" x="0" y="0" maskUnits="userSpaceOnUse" style="mask-type:luminance"><path fill="#fff" stroke="#fff" stroke-width="1.5" d="M23.3 23.3V.6H.6v22.6h22.6Z"></path></mask><g stroke="#2A5961" stroke-linecap="round" stroke-linejoin="round" stroke-miterlimit="10" stroke-width="1.5" mask="url(#b)"><path d="M21.8 8.8c-.3-1-.2-2.4-.8-3.3-.7-1-2-1.2-3-1.9-.8-.7-1.5-1.8-2.6-2.2-1-.3-2.2.2-3.4.2-1.2 0-2.4-.5-3.4-.2-1.1.4-1.8 1.5-2.7 2.2-.9.7-2.2 1-2.9 1.9-.6.9-.5 2.2-.8 3.3-.4 1-1.3 2-1.3 3.2 0 1.2 1 2.2 1.3 3.2.3 1 .2 2.4.8 3.3.7 1 2 1.2 3 1.9.8.7 1.5 1.8 2.6 2.2 1 .3 2.2-.2 3.4-.2 1.2 0 2.4.5 3.4.2 1.1-.4 1.8-1.5 2.7-2.2.9-.7 2.2-1 2.9-1.9.6-.9.5-2.2.8-3.3.4-1 1.3-2 1.3-3.2 0-1.2-1-2.2-1.3-3.2Z"></path><path d="m8.3 11.7 2.7 2.6 4.7-4.6"></path></g></g><defs><clipPath id="a"><path fill="#fff" d="M0 0h24v24H0z"></path></clipPath></defs></svg> 