<svg xmlns="http://www.w3.org/2000/svg" width="462" height="627" fill="none"><g clip-path="url(#a)"><path fill="url(#b)" d="M82.1005 95.5962h321.091v615.191H82.1005z"/><rect width="191.193" height="191.193" fill="url(#c)" rx="9.5596" transform="matrix(.86603 -.5 .86603 .5 77.0394 95.5962)"/><rect width="189.506" height="189.506" x="1.461" stroke="url(#d)" stroke-opacity=".7" stroke-width="1.687" rx="8.7161" transform="matrix(.86603 -.5 .86603 .5 77.2352 96.3267)"/><g filter="url(#e)"><path fill="#fff" fill-opacity=".08" fill-rule="evenodd" stroke="#fff" stroke-opacity=".08" d="M221.463 62.2212c0 .3889.02.7785.061 1.1675v9.6a11.1377 11.1377 0 0 1-.061-1.1675v-9.6Z" clip-rule="evenodd"/><path fill="#fff" fill-opacity=".08" fill-rule="evenodd" stroke="#fff" stroke-opacity=".08" d="M221.524 63.3882c-4.451 1.6902-8.641 3.6643-12.487 5.8849-12.173 7.0278-21.04 17.2883-21.912 27.3628v9.6001c.872-10.0746 9.739-20.3351 21.912-27.3629 3.846-2.2206 8.036-4.1947 12.487-5.8849v-9.6ZM197.43 115.524l-.384.222c-2.012 1.161-5.285 1.161-7.297 0l-.004-.002c-1.766-1.02-4.627-1.019-6.393.001-.848.489-1.288 1.125-1.322 1.766v9.6c.034-.641.474-1.277 1.322-1.766 1.766-1.02 4.627-1.021 6.393-.001l.004.002c2.012 1.161 5.285 1.161 7.297 0l.384-.222v-9.6ZM272.771 122.053c.04-.483-.152-.977-.601-1.426l-3.345-3.345v9.6l3.345 3.345c.449.449.641.943.601 1.426v-9.6Z" clip-rule="evenodd"/><path fill="url(#f)" fill-rule="evenodd" d="M187.125 96.6365c-.582 6.7165 2.39 13.3495 10.305 18.8875v9.6c-7.915-5.538-10.887-12.171-10.305-18.888v-9.5995Z" clip-rule="evenodd"/><path fill="url(#g)" fill-rule="evenodd" d="M182.03 117.511c-.036.695.405 1.397 1.323 1.927 5.539 3.198 14.55 3.198 20.089 0l.397-.229c9.213 4.329 21.182 6.381 34.375 5.871l5.15 5.15c1.248 1.248 4.014 1.677 6.177.956l20.974-6.992c1.386-.462 2.186-1.283 2.256-2.141v9.6c-.07.858-.87 1.679-2.256 2.141l-20.974 6.992c-2.163.721-4.929.291-6.177-.956l-5.15-5.15c-13.193.51-25.162-1.542-34.375-5.871l-.397.229c-5.539 3.198-14.55 3.198-20.089 0-.918-.53-1.359-1.232-1.323-1.927v-9.6Z" clip-rule="evenodd"/><path fill="url(#h)" fill-rule="evenodd" d="m268.825 117.282 23.366-13.49 5.794 1.932c3.078 1.025 5.57-.348 6.177-.956l12.11-12.1094c.399-.3992.595-.8343.605-1.265v9.6004c-.01.43-.206.865-.605 1.265l-12.11 12.109c-.607.608-3.099 1.981-6.177.956l-5.794-1.932-23.366 13.49v-9.6Z" clip-rule="evenodd"/><path stroke="#fff" stroke-opacity=".08" d="M187.125 96.6365c-.582 6.7165 2.39 13.3495 10.305 18.8875v9.6c-7.915-5.538-10.887-12.171-10.305-18.888v-9.5995Z" clip-rule="evenodd"/><path stroke="#fff" stroke-opacity=".08" d="M182.03 117.511c-.036.695.405 1.397 1.323 1.927 5.539 3.198 14.55 3.198 20.089 0l.397-.229c9.213 4.329 21.182 6.381 34.375 5.871l5.15 5.15c1.248 1.248 4.014 1.677 6.177.956l20.974-6.992c1.386-.462 2.186-1.283 2.256-2.141v9.6c-.07.858-.87 1.679-2.256 2.141l-20.974 6.992c-2.163.721-4.929.291-6.177-.956l-5.15-5.15c-13.193.51-25.162-1.542-34.375-5.871l-.397.229c-5.539 3.198-14.55 3.198-20.089 0-.918-.53-1.359-1.232-1.323-1.927v-9.6Z" clip-rule="evenodd"/><path stroke="#fff" stroke-opacity=".08" d="m268.825 117.282 23.366-13.49 5.794 1.932c3.078 1.025 5.57-.348 6.177-.956l12.11-12.1094c.399-.3992.595-.8343.605-1.265v9.6004c-.01.43-.206.865-.605 1.265l-12.11 12.109c-.607.608-3.099 1.981-6.177.956l-5.794-1.932-23.366 13.49v-9.6Z" clip-rule="evenodd"/><path fill="#fff" fill-opacity=".08" fill-rule="evenodd" stroke="#fff" stroke-opacity=".08" d="M316.877 91.3933c.023-.9153-.79-1.8111-2.26-2.3015l-8.923-2.9741v9.6l8.923 2.9741c1.47.4904 2.283 1.3862 2.26 2.3012v-9.5997Z" clip-rule="evenodd"/><path fill="#fff" fill-opacity=".08" fill-rule="evenodd" stroke="#fff" stroke-opacity=".08" d="M305.694 86.1177c.078-.6887.119-1.374.124-2.0547v9.6c-.005.6807-.046 1.366-.124 2.0546v-9.5999Z" clip-rule="evenodd"/><path fill="#fff" fill-opacity=".08" fill-rule="evenodd" stroke="#fff" stroke-opacity=".08" d="M305.818 84.0629c.024-3.5739-.962-7.0226-2.919-10.183v9.6c1.957 3.1604 2.943 6.6091 2.919 10.1829v-9.5999Z" clip-rule="evenodd"/><path fill="#fff" fill-opacity=".08" fill-rule="evenodd" stroke="#fff" stroke-opacity=".08" d="m302.899 73.88 6.721-3.8806c.848-.4894 1.289-1.1248 1.322-1.766v9.6c-.033.6412-.474 1.2766-1.322 1.766l-6.721 3.8806v-9.6Z" clip-rule="evenodd"/><path fill="#fff" fill-opacity=".08" fill-rule="evenodd" stroke="#fff" stroke-opacity=".08" d="M310.942 68.2334c.037-.6947-.404-1.3962-1.322-1.9264l-20.55-11.8645c-1.766-1.0196-4.629-1.0196-6.395 0l-6.718 3.8783c-7.291-1.5059-15.43-2.0114-23.828-1.477l-14.434-8.3335c-1.766-1.0196-4.63-1.0196-6.396 0-6.343 3.6624-9.836 8.5315-9.836 13.7106v9.6c0-5.1791 3.493-10.0482 9.836-13.7106 1.766-1.0196 4.63-1.0196 6.396 0l14.434 8.3335c8.398-.5344 16.537-.0289 23.828 1.477l6.718-3.8784c1.766-1.0195 4.629-1.0195 6.395 0l20.55 11.8646c.918.5302 1.359 1.2317 1.322 1.9264v-9.6Z" clip-rule="evenodd"/><path fill="#fff" fill-opacity=".08" fill-rule="evenodd" stroke="#fff" stroke-opacity=".08" d="M206.548 80.4128c-.037-.6947.404-1.3962 1.322-1.9263l13.7-7.9098c1.766-1.0196 4.63-1.0196 6.395 0 .848.4894 1.289 1.1248 1.323 1.766v9.5999c-.034-.6412-.475-1.2765-1.323-1.7659-1.765-1.0196-4.629-1.0196-6.395 0l-13.7 7.9097c-.918.5302-1.359 1.2317-1.322 1.9264v-9.6Z" clip-rule="evenodd"/><path fill="#fff" fill-opacity=".08" fill-rule="evenodd" stroke="#fff" stroke-opacity=".08" d="M229.288 72.3428c.037.6946-.404 1.3961-1.322 1.9263l-13.701 7.9098c-1.766 1.0195-4.629 1.0195-6.395 0-.848-.4894-1.288-1.1248-1.322-1.766v9.6c.034.6412.474 1.2766 1.322 1.766 1.766 1.0195 4.629 1.0195 6.395 0l13.701-7.9098c.918-.5302 1.359-1.2317 1.322-1.9263v-9.6ZM263.083 72.0803c.037.6947-.404 1.3962-1.322 1.9263-1.766 1.0196-4.63 1.0196-6.395 0l-3.426-1.9774c-.847-.4894-1.288-1.1248-1.322-1.766v9.6c.034.6412.475 1.2766 1.322 1.7659l3.426 1.9775c1.765 1.0196 4.629 1.0196 6.395 0 .918-.5302 1.359-1.2317 1.322-1.9263v-9.6Z" clip-rule="evenodd"/><path fill="#fff" fill-opacity=".08" fill-rule="evenodd" stroke="#fff" stroke-opacity=".08" d="M250.618 70.2633c-.037-.6947.404-1.3962 1.322-1.9264 1.766-1.0195 4.63-1.0195 6.396 0l3.425 1.9775c.847.4894 1.288 1.1248 1.322 1.766v9.6c-.034-.6412-.475-1.2766-1.322-1.766l-3.425-1.9775c-1.766-1.0195-4.63-1.0195-6.396 0-.918.5302-1.359 1.2317-1.322 1.9263v-9.5999ZM204.938 59.7351c.256-3.3631-2.564-6.7048-7.877-8.5993-7.814-2.7862-18.06-1.3878-22.885 3.1233-1.545 1.4435-2.347 3.0309-2.467 4.6135v9.6c.12-1.5826.922-3.17 2.467-4.6135 4.825-4.5111 15.071-5.9095 22.885-3.1234 5.313 1.8946 8.133 5.2363 7.877 8.5994v-9.6Z" clip-rule="evenodd"/><path fill="#fff" fill-opacity=".08" fill-rule="evenodd" stroke="#fff" stroke-opacity=".08" d="M171.709 58.8726c-.257 3.3631 2.563 6.7047 7.876 8.5993 7.814 2.7861 18.06 1.3877 22.886-3.1233 1.544-1.4435 2.346-3.0309 2.467-4.6136v9.6c-.121 1.5826-.923 3.17-2.467 4.6136-4.826 4.511-15.072 5.9094-22.886 3.1233-5.313-1.8946-8.133-5.2363-7.876-8.5994v-9.5999Z" clip-rule="evenodd"/><path fill="url(#i)" d="m282.675 54.4427-6.718 3.8784c-7.291-1.506-15.43-2.0114-23.828-1.477l-14.434-8.3336c-1.766-1.0195-4.63-1.0195-6.396 0-6.343 3.6624-9.836 8.5316-9.836 13.7107 0 .3889.02.7784.061 1.1675-4.451 1.6902-8.641 3.6643-12.487 5.8849-20.288 11.713-31.394 32.4054-11.607 46.2504l-.384.222c-2.012 1.161-5.286 1.161-7.298 0l-.003-.002c-1.766-1.02-4.628-1.019-6.393.001-1.766 1.019-1.765 2.673.001 3.693 5.539 3.197 14.55 3.197 20.089 0l.397-.229c9.213 4.329 21.182 6.381 34.374 5.871l5.151 5.15c1.247 1.247 4.014 1.677 6.177.955l20.974-6.991c2.165-.722 2.902-2.32 1.655-3.567l-3.345-3.345 23.365-13.49 5.795 1.931c3.078 1.026 5.57-.347 6.177-.955l12.11-12.1095c1.247-1.2475.508-2.8454-1.656-3.5665l-8.922-2.9741c.488-4.3043-.465-8.4752-2.795-12.2377l6.721-3.8806c1.766-1.0196 1.766-2.6727 0-3.6923l-20.55-11.8646c-1.766-1.0195-4.629-1.0195-6.395 0Zm-54.71 19.8267-13.7 7.9098c-1.766 1.0195-4.629 1.0195-6.395 0-1.766-1.0196-1.766-2.6728 0-3.6923l13.7-7.9098c1.766-1.0196 4.63-1.0196 6.395 0 1.766 1.0196 1.766 2.6727 0 3.6923Zm33.796-3.9548c1.766 1.0195 1.766 2.6727 0 3.6923-1.766 1.0195-4.63 1.0195-6.396 0l-3.425-1.9775c-1.766-1.0196-1.766-2.6727 0-3.6923s4.63-1.0196 6.396 0l3.425 1.9775Z"/><path fill="url(#j)" d="M202.471 64.3488c4.826-4.5111 2.404-10.4267-5.41-13.2129-7.813-2.7861-18.06-1.3878-22.885 3.1233-4.826 4.5111-2.404 10.4267 5.409 13.2129 7.814 2.7862 18.06 1.3878 22.886-3.1233Z"/><path stroke="#fff" stroke-opacity=".08" stroke-width=".9998" d="m282.675 54.4427-6.718 3.8784c-7.291-1.506-15.43-2.0114-23.828-1.477l-14.434-8.3336c-1.766-1.0195-4.63-1.0195-6.396 0-6.343 3.6624-9.836 8.5316-9.836 13.7107 0 .3889.02.7784.061 1.1675-4.451 1.6902-8.641 3.6643-12.487 5.8849-20.288 11.713-31.394 32.4054-11.607 46.2504l-.384.222c-2.012 1.161-5.286 1.161-7.298 0l-.003-.002c-1.766-1.02-4.628-1.019-6.393.001-1.766 1.019-1.765 2.673.001 3.693 5.539 3.197 14.55 3.197 20.089 0l.397-.229c9.213 4.329 21.182 6.381 34.374 5.871l5.151 5.15c1.247 1.247 4.014 1.677 6.177.955l20.974-6.991c2.165-.722 2.902-2.32 1.655-3.567l-3.345-3.345 23.365-13.49 5.795 1.931c3.078 1.026 5.57-.347 6.177-.955l12.11-12.1095c1.247-1.2475.508-2.8454-1.656-3.5665l-8.922-2.9741c.488-4.3043-.465-8.4752-2.795-12.2377l6.721-3.8806c1.766-1.0196 1.766-2.6727 0-3.6923l-20.55-11.8646c-1.766-1.0195-4.629-1.0195-6.395 0Zm-54.71 19.8267-13.7 7.9098c-1.766 1.0195-4.629 1.0195-6.395 0-1.766-1.0196-1.766-2.6728 0-3.6923l13.7-7.9098c1.766-1.0196 4.63-1.0196 6.395 0 1.766 1.0196 1.766 2.6727 0 3.6923Zm33.796-3.9548c1.766 1.0195 1.766 2.6727 0 3.6923-1.766 1.0195-4.63 1.0195-6.396 0l-3.425-1.9775c-1.766-1.0196-1.766-2.6727 0-3.6923s4.63-1.0196 6.396 0l3.425 1.9775ZM202.471 64.3488c4.826-4.5111 2.404-10.4267-5.41-13.2129-7.813-2.7861-18.06-1.3878-22.885 3.1233-4.826 4.5111-2.404 10.4267 5.409 13.2129 7.814 2.7862 18.06 1.3878 22.886-3.1233Z"/></g><g filter="url(#k)"><path fill="url(#l)" d="M261.484 245.177h195.129V627H261.484z"/><path fill="url(#m)" d="M261.484 245.177h195.129V627H261.484z"/><rect width="118.588" height="118.588" fill="url(#n)" rx="9.5596" transform="matrix(.86603 -.5 .86603 .5 256.423 245.426)"/><rect width="116.901" height="116.901" x="1.461" stroke="url(#o)" stroke-opacity=".7" stroke-width="1.687" rx="8.7161" transform="matrix(.86603 -.5 .86603 .5 256.619 246.156)"/><path fill="#B5CEFF" fill-rule="evenodd" d="M404.396 244.983c.001.831-.12 1.662-.366 2.486-.682 2.289-2.299 4.451-4.717 6.307-2.419 1.856-5.569 3.353-9.189 4.365v3.145c3.62-1.013 6.77-2.509 9.189-4.365 2.418-1.856 4.035-4.018 4.717-6.307.246-.824.367-1.655.366-2.486v-3.145Z" clip-rule="evenodd"/><path fill="#B5CEFF" fill-rule="evenodd" d="M390.124 258.141c.094-.563.141-1.127.142-1.69v3.145c-.001.563-.048 1.127-.142 1.69v-3.145Z" clip-rule="evenodd"/><path fill="#B5CEFF" fill-rule="evenodd" d="M390.266 256.451c.004-2.253-.738-4.49-2.195-6.591-1.82-2.626-4.704-4.962-8.41-6.812v3.145c3.706 1.85 6.59 4.186 8.41 6.812 1.457 2.101 2.199 4.338 2.195 6.591v-3.145Z" clip-rule="evenodd"/><path fill="#B5CEFF" fill-rule="evenodd" d="M379.661 243.048c.438-1.19.663-2.394.677-3.594v3.145c-.014 1.2-.239 2.404-.677 3.594v-3.145Z" clip-rule="evenodd"/><path fill="#B5CEFF" fill-rule="evenodd" d="M380.338 239.454c.039-3.087-1.308-6.148-3.958-8.876v3.145c2.65 2.728 3.997 5.789 3.958 8.876v-3.145Z" clip-rule="evenodd"/><path fill="#B5CEFF" fill-rule="evenodd" d="M376.38 230.578c3.772-.256 7.595-.015 11.183.704 3.589.719 6.848 1.897 9.535 3.447 2.827 1.653 4.93 3.67 6.135 5.886.772 1.418 1.161 2.891 1.163 4.368v3.145c-.002-1.477-.391-2.95-1.163-4.368-1.205-2.216-3.308-4.233-6.135-5.886-2.687-1.55-5.946-2.728-9.535-3.447-3.588-.719-7.411-.96-11.183-.704v-3.145ZM384.67 256.234c.037 1.263-.212 2.529-.746 3.764-1.027 2.375-3.075 4.563-5.956 6.36-2.88 1.797-6.5 3.145-10.522 3.919-4.023.774-8.32.95-12.492.511-4.171-.439-8.084-1.479-11.374-3.024-3.291-1.544-5.853-3.543-7.449-5.811-1.214-1.724-1.84-3.561-1.854-5.411v3.145c.014 1.85.64 3.687 1.854 5.411 1.596 2.268 4.158 4.267 7.449 5.811 3.29 1.545 7.203 2.585 11.374 3.024 4.172.439 8.469.263 12.492-.511 4.022-.774 7.642-2.123 10.522-3.919 2.881-1.797 4.929-3.985 5.956-6.36.534-1.235.783-2.501.746-3.764v-3.145Z" clip-rule="evenodd"/><path fill="#B5CEFF" fill-rule="evenodd" d="M334.277 256.542c-.005-.584.051-1.17.169-1.753 3.752 1.202 7.896 1.942 12.17 2.171 4.273.229 8.582-.058 12.653-.842 4.071-.783 7.816-2.047 10.996-3.711 3.18-1.664 5.726-3.691 7.477-5.953 2.921 1.775 5.019 3.947 6.1 6.314.519 1.137.795 2.301.828 3.466v3.145c-.033-1.166-.309-2.329-.828-3.466-1.081-2.367-3.179-4.539-6.1-6.314-1.751 2.262-4.297 4.289-7.477 5.953-3.18 1.664-6.925 2.928-10.996 3.711-4.071.784-8.38 1.07-12.653.842-4.274-.229-8.418-.969-12.17-2.171a8.4605 8.4605 0 0 0-.169 1.753v-3.145ZM324.348 239.413c-.025-1.939.621-3.871 1.918-5.68 1.908-2.66 5.14-4.933 9.286-6.532 4.146-1.6 9.02-2.453 14.007-2.453 4.986 0 9.861.853 14.007 2.453 4.145 1.599 7.377 3.872 9.285 6.532 1.221 1.702 1.866 3.514 1.916 5.338v3.145c-.05-1.824-.695-3.636-1.916-5.338-1.908-2.66-5.14-4.933-9.285-6.532-4.146-1.6-9.021-2.454-14.007-2.453-4.987-.001-9.861.853-14.007 2.453-4.146 1.599-7.378 3.872-9.286 6.532-1.297 1.809-1.943 3.741-1.918 5.68v-3.145Z" clip-rule="evenodd"/><path fill="#B5CEFF" fill-rule="evenodd" d="M374.767 239.071c.029 1.026-.131 2.056-.481 3.072-.973 2.824-3.374 5.417-6.9 7.453-4.732 2.726-11.143 4.257-17.827 4.257-6.684 0-13.096-1.531-17.828-4.257-3.525-2.036-5.927-4.629-6.899-7.453-.312-.903-.472-1.818-.484-2.73v3.145c.012.912.172 1.826.484 2.73.972 2.824 3.374 5.417 6.899 7.453 4.732 2.726 11.144 4.257 17.828 4.257 6.684 0 13.095-1.531 17.827-4.257 3.526-2.036 5.927-4.629 6.9-7.453.35-1.016.51-2.046.481-3.072v-3.145Z" clip-rule="evenodd"/><path fill="#2F86D8" d="M397.098 234.729c2.827 1.652 4.93 3.67 6.135 5.886 1.206 2.216 1.479 4.566.797 6.855-.682 2.288-2.299 4.451-4.717 6.306-2.419 1.856-5.569 3.353-9.189 4.365.472-2.815-.232-5.655-2.052-8.281-1.821-2.626-4.705-4.962-8.411-6.812 1.566-4.249.4-8.681-3.281-12.47 3.772-.256 7.595-.015 11.183.704 3.589.718 6.848 1.897 9.535 3.447ZM377.742 246.454c2.921 1.775 5.019 3.947 6.1 6.314 1.081 2.368 1.109 4.854.082 7.23-1.027 2.375-3.075 4.563-5.956 6.36-2.88 1.796-6.5 3.144-10.522 3.919-4.023.774-8.32.95-12.492.511-4.171-.439-8.084-1.479-11.374-3.024-3.291-1.544-5.853-3.543-7.449-5.811-1.597-2.268-2.176-4.733-1.685-7.164 3.752 1.202 7.896 1.942 12.17 2.171 4.273.228 8.582-.058 12.653-.842 4.071-.783 7.816-2.047 10.996-3.711 3.18-1.664 5.726-3.691 7.477-5.953Z"/><path fill="#2F86D8" d="M331.731 249.596c-3.525-2.036-5.927-4.629-6.899-7.453-.973-2.824-.474-5.75 1.434-8.41s5.14-4.933 9.286-6.532c4.146-1.6 9.02-2.454 14.007-2.454 4.986 0 9.86.854 14.007 2.454 4.146 1.599 7.377 3.872 9.285 6.532 1.908 2.66 2.408 5.586 1.435 8.41-.973 2.824-3.374 5.417-6.9 7.453-4.732 2.726-11.143 4.257-17.827 4.257-6.685 0-13.096-1.531-17.828-4.257Z"/></g><g filter="url(#p)"><path fill="url(#q)" d="M5.061 298.598h232.805v450.99H5.061z"/><path fill="url(#r)" d="M5.061 298.598h232.805v450.99H5.061z"/><rect width="140.067" height="140.067" fill="url(#s)" rx="9.5596" transform="matrix(.86603 -.5 .86603 .5 0 298.902)"/><rect width="138.38" height="138.38" x="1.461" stroke="url(#t)" stroke-opacity=".7" stroke-width="1.687" rx="8.7161" transform="matrix(.86603 -.5 .86603 .5 .1957 299.633)"/><path fill="#B5CEFF" fill-rule="evenodd" d="M123.593 280.511a.4597.4597 0 0 0 .018.204c.011.019.566 1.82 1.218 4.242 1.054.169 2.086.351 3.097.558.065.013.109.025.174.038 7.694 1.594 13.932 4.68 17.551 8.677 2.119 2.341 2.988 4.599 3.053 6.695v6.274c-.065-2.095-.934-4.354-3.053-6.694-3.619-3.997-9.857-7.084-17.551-8.678-.065-.012-.109-.025-.174-.037-1.011-.208-2.043-.39-3.097-.559-.652-2.422-1.207-4.223-1.218-4.241a.461.461 0 0 1-.018-.204v-6.275ZM148.704 300.925c.004.1.006.2.006.3v6.274c0-.099-.002-.2-.006-.3v-6.274Z" clip-rule="evenodd"/><path fill="#B5CEFF" fill-rule="evenodd" d="M148.71 301.225c0 .524-.046 1.038-.147 1.538v6.275c.101-.501.147-1.015.147-1.539v-6.274Z" clip-rule="evenodd"/><path fill="#B5CEFF" fill-rule="evenodd" d="M148.563 302.763c5.76-.665 9.661-2.868 9.857-2.981.074-.042 5.471-3.246 5.482-7.617v6.274c-.011 4.372-5.408 7.575-5.482 7.618-.196.113-4.097 2.315-9.857 2.98v-6.274Z" clip-rule="evenodd"/><path fill="#B5CEFF" fill-rule="evenodd" d="M163.902 292.165c.003-1.381-.531-2.878-1.939-4.429-2.348-2.585-6.38-4.562-11.368-5.584-2.195-.452-4.521-.753-6.911-.904-8.292-.521-18.193-1.556-18.29-1.562-.871-.094-1.732.332-1.801.825v6.274c.069-.493.93-.919 1.801-.825.097.006 9.998 1.042 18.29 1.563 2.39.15 4.716.451 6.911.903 4.988 1.023 9.02 2.999 11.368 5.584 1.408 1.551 1.942 3.048 1.939 4.429v-6.274ZM88.0438 284.021a.471.471 0 0 0 .0204.138c.0326.082 2.6951 8.584 4.0318 15.692.3804 2.027 1.1519 3.991 2.2822 5.835 2.5647 4.179 7.5308 7.548 13.9868 9.506 16.148 4.894 29.983-2.867 30.135-2.955.107-.062 7.898-4.69 7.91-11.001v6.274c-.012 6.311-7.803 10.939-7.91 11.001-.152.088-13.987 7.849-30.135 2.955-6.456-1.957-11.4221-5.327-13.9868-9.505-1.1303-1.845-1.9018-3.809-2.2822-5.835-1.3367-7.109-3.9992-15.611-4.0318-15.692a.4808.4808 0 0 1-.0204-.138v-6.275Z" clip-rule="evenodd"/><path fill="#B5CEFF" fill-rule="evenodd" d="M146.41 301.236c.004-1.993-.768-4.153-2.802-6.391-1.337-1.462-3.032-2.792-5.054-3.959-3.13-1.807-7.009-3.219-11.411-4.116-3.195-.653-6.596-1.098-10.106-1.318-12.313-.771-27.0384-2.309-27.1797-2.327-.9198-.093-1.812.372-1.8135.897v6.274c.0015-.524.8937-.989 1.8135-.897.1413.019 14.8667 1.556 27.1797 2.328 3.51.219 6.911.665 10.106 1.317 4.402.897 8.281 2.309 11.411 4.116 2.022 1.167 3.717 2.497 5.054 3.959 2.034 2.238 2.806 4.399 2.802 6.392v-6.275Z" clip-rule="evenodd"/><path fill="#2F86D8" d="M150.595 282.152c-2.195-.452-4.521-.753-6.911-.904-8.292-.521-18.192-1.556-18.29-1.562-.989-.107-1.967.458-1.782 1.029.01.019.565 1.819 1.217 4.241 1.054.17 2.086.352 3.097.559.065.012.109.025.174.037 7.694 1.594 13.932 4.681 17.551 8.678 2.119 2.34 2.988 4.599 3.053 6.694.022.628-.021 1.243-.141 1.839 5.76-.665 9.661-2.868 9.857-2.981.098-.056 9.411-5.584 3.543-12.046-2.348-2.585-6.38-4.562-11.368-5.584Z"/><path fill="#2F86D8" d="M143.608 294.845c-1.337-1.462-3.032-2.793-5.054-3.96-3.13-1.807-7.009-3.218-11.411-4.115-3.195-.653-6.596-1.098-10.106-1.318-12.313-.772-27.0384-2.309-27.1797-2.328-.9998-.1-1.967.458-1.7931 1.035.0326.082 2.6951 8.584 4.0318 15.692.3804 2.027 1.152 3.991 2.2822 5.836 2.5647 4.178 7.5308 7.548 13.9868 9.505 16.149 4.894 29.983-2.867 30.135-2.955.141-.082 13.584-8.069 5.108-17.392Zm-13.02 15.271c.261.339.109.728-.326.979-.13.075-.293.144-.478.188-7.194 1.782-14.54 1.657-21.224-.37-.75-.232-1.043-.765-.652-1.205.402-.433 1.326-.602 2.076-.37 5.933 1.795 12.182 1.901 18.583.314.793-.195 1.695.012 2.021.464Z"/></g></g><defs><linearGradient id="b" x1="82.1005" x2="403.192" y1="286.508" y2="286.508" gradientUnits="userSpaceOnUse"><stop offset=".43" stop-color="#0A4B88"/><stop offset=".5602" stop-color="#1873C9"/></linearGradient><linearGradient id="c" x1="-2.1616" x2="122.905" y1="-113.354" y2="211.201" gradientUnits="userSpaceOnUse"><stop stop-color="#48A6FF"/><stop offset="1" stop-color="#105FAA"/></linearGradient><linearGradient id="f" x1="317" x2="249.453" y1="102.5" y2="141.136" gradientUnits="userSpaceOnUse"><stop stop-color="#fff" stop-opacity=".2"/><stop offset=".4663" stop-color="#fff" stop-opacity=".5"/><stop offset="1" stop-color="#fff" stop-opacity=".2"/></linearGradient><linearGradient id="g" x1="317" x2="249.453" y1="102.5" y2="141.136" gradientUnits="userSpaceOnUse"><stop stop-color="#fff" stop-opacity=".2"/><stop offset=".4663" stop-color="#fff" stop-opacity=".5"/><stop offset="1" stop-color="#fff" stop-opacity=".2"/></linearGradient><linearGradient id="h" x1="317" x2="249.453" y1="102.5" y2="141.136" gradientUnits="userSpaceOnUse"><stop stop-color="#fff" stop-opacity=".2"/><stop offset=".4663" stop-color="#fff" stop-opacity=".5"/><stop offset="1" stop-color="#fff" stop-opacity=".2"/></linearGradient><linearGradient id="i" x1="206.997" x2="317.728" y1="34.9426" y2="141.482" gradientUnits="userSpaceOnUse"><stop stop-color="#BAD0FF"/><stop offset=".2732" stop-color="#CFDDFF"/><stop offset=".6023" stop-color="#E8EEFF"/><stop offset="1" stop-color="#ADC1FD"/></linearGradient><linearGradient id="j" x1="206.997" x2="317.728" y1="34.9426" y2="141.482" gradientUnits="userSpaceOnUse"><stop stop-color="#BAD0FF"/><stop offset=".2732" stop-color="#CFDDFF"/><stop offset=".6023" stop-color="#E8EEFF"/><stop offset="1" stop-color="#ADC1FD"/></linearGradient><linearGradient id="l" x1="261.484" x2="456.613" y1="363.668" y2="363.668" gradientUnits="userSpaceOnUse"><stop offset=".3775" stop-color="#D1DAE9"/><stop offset=".5274" stop-color="#EDF3FF"/><stop offset=".9625" stop-color="#EFF4FB"/></linearGradient><linearGradient id="n" x1="59.294" x2="59.294" y1="0" y2="118.588" gradientUnits="userSpaceOnUse"><stop stop-color="#E9ECF8"/><stop offset="1" stop-color="#EDF3FF"/></linearGradient><linearGradient id="q" x1="5.061" x2="237.866" y1="438.553" y2="438.554" gradientUnits="userSpaceOnUse"><stop offset=".3775" stop-color="#D1DAE9"/><stop offset=".5274" stop-color="#EDF3FF"/><stop offset=".9625" stop-color="#EFF4FB"/></linearGradient><linearGradient id="s" x1="70.0334" x2="70.0334" y1="0" y2="140.067" gradientUnits="userSpaceOnUse"><stop stop-color="#E9ECF8"/><stop offset="1" stop-color="#EDF3FF"/></linearGradient><radialGradient id="d" cx="0" cy="0" r="1" gradientTransform="matrix(404.509 -351.265 -53.2446 404.509 -.1456 191.047)" gradientUnits="userSpaceOnUse"><stop stop-color="#fff" stop-opacity="0"/><stop offset="1" stop-color="#fff"/></radialGradient><radialGradient id="m" cx="0" cy="0" r="1" gradientTransform="rotate(119.899 148.765 269.5713) scale(77.8398 74.1958)" gradientUnits="userSpaceOnUse"><stop stop-color="#D1DAE9"/><stop offset="1" stop-color="#D1DAE9" stop-opacity="0"/></radialGradient><radialGradient id="o" cx="0" cy="0" r="1" gradientTransform="matrix(250.898 -217.873 -33.0251 250.898 -.0903 118.498)" gradientUnits="userSpaceOnUse"><stop stop-color="#fff" stop-opacity="0"/><stop offset="1" stop-color="#fff"/></radialGradient><radialGradient id="r" cx="0" cy="0" r="1" gradientTransform="matrix(-46.2927 79.7037 -76.7401 -43.6842 237.866 333.801)" gradientUnits="userSpaceOnUse"><stop stop-color="#D1DAE9"/><stop offset="1" stop-color="#D1DAE9" stop-opacity="0"/></radialGradient><radialGradient id="t" cx="0" cy="0" r="1" gradientTransform="matrix(296.341 -257.335 -39.0067 296.342 -.1067 139.96)" gradientUnits="userSpaceOnUse"><stop stop-color="#fff" stop-opacity="0"/><stop offset="1" stop-color="#fff"/></radialGradient><filter id="e" width="312.41" height="232.39" x="160.08" y="33.2456" color-interpolation-filters="sRGB" filterUnits="userSpaceOnUse"><feFlood flood-opacity="0" result="BackgroundImageFix"/><feColorMatrix in="SourceAlpha" result="hardAlpha" values="0 0 0 0 0 0 0 0 0 0 0 0 0 0 0 0 0 0 127 0"/><feOffset dx="7" dy="5"/><feGaussianBlur stdDeviation="9"/><feColorMatrix values="0 0 0 0 0 0 0 0 0 0 0 0 0 0 0 0 0 0 0.1 0"/><feBlend in2="BackgroundImageFix" result="effect1_dropShadow_70_1673"/><feColorMatrix in="SourceAlpha" result="hardAlpha" values="0 0 0 0 0 0 0 0 0 0 0 0 0 0 0 0 0 0 127 0"/><feOffset dx="26" dy="18"/><feGaussianBlur stdDeviation="16"/><feColorMatrix values="0 0 0 0 0 0 0 0 0 0 0 0 0 0 0 0 0 0 0.09 0"/><feBlend in2="effect1_dropShadow_70_1673" result="effect2_dropShadow_70_1673"/><feColorMatrix in="SourceAlpha" result="hardAlpha" values="0 0 0 0 0 0 0 0 0 0 0 0 0 0 0 0 0 0 127 0"/><feOffset dx="59" dy="41"/><feGaussianBlur stdDeviation="21.5"/><feColorMatrix values="0 0 0 0 0 0 0 0 0 0 0 0 0 0 0 0 0 0 0.05 0"/><feBlend in2="effect2_dropShadow_70_1673" result="effect3_dropShadow_70_1673"/><feColorMatrix in="SourceAlpha" result="hardAlpha" values="0 0 0 0 0 0 0 0 0 0 0 0 0 0 0 0 0 0 127 0"/><feOffset dx="104" dy="73"/><feGaussianBlur stdDeviation="25.5"/><feColorMatrix values="0 0 0 0 0 0 0 0 0 0 0 0 0 0 0 0 0 0 0.01 0"/><feBlend in2="effect3_dropShadow_70_1673" result="effect4_dropShadow_70_1673"/><feBlend in="SourceGraphic" in2="effect4_dropShadow_70_1673" result="shape"/></filter><filter id="k" width="453.701" height="578.068" x="16.273" y="97.9316" color-interpolation-filters="sRGB" filterUnits="userSpaceOnUse"><feFlood flood-opacity="0" result="BackgroundImageFix"/><feColorMatrix in="SourceAlpha" result="hardAlpha" values="0 0 0 0 0 0 0 0 0 0 0 0 0 0 0 0 0 0 127 0"/><feOffset dx="-11" dy="-1"/><feGaussianBlur stdDeviation="12"/><feColorMatrix values="0 0 0 0 0 0 0 0 0 0 0 0 0 0 0 0 0 0 0.1 0"/><feBlend in2="BackgroundImageFix" result="effect1_dropShadow_70_1673"/><feColorMatrix in="SourceAlpha" result="hardAlpha" values="0 0 0 0 0 0 0 0 0 0 0 0 0 0 0 0 0 0 127 0"/><feOffset dx="-44" dy="-5"/><feGaussianBlur stdDeviation="22"/><feColorMatrix values="0 0 0 0 0 0 0 0 0 0 0 0 0 0 0 0 0 0 0.09 0"/><feBlend in2="effect1_dropShadow_70_1673" result="effect2_dropShadow_70_1673"/><feColorMatrix in="SourceAlpha" result="hardAlpha" values="0 0 0 0 0 0 0 0 0 0 0 0 0 0 0 0 0 0 127 0"/><feOffset dx="-98" dy="-12"/><feGaussianBlur stdDeviation="29.5"/><feColorMatrix values="0 0 0 0 0 0 0 0 0 0 0 0 0 0 0 0 0 0 0.05 0"/><feBlend in2="effect2_dropShadow_70_1673" result="effect3_dropShadow_70_1673"/><feColorMatrix in="SourceAlpha" result="hardAlpha" values="0 0 0 0 0 0 0 0 0 0 0 0 0 0 0 0 0 0 127 0"/><feOffset dx="-175" dy="-21"/><feGaussianBlur stdDeviation="35"/><feColorMatrix values="0 0 0 0 0 0 0 0 0 0 0 0 0 0 0 0 0 0 0.01 0"/><feBlend in2="effect3_dropShadow_70_1673" result="effect4_dropShadow_70_1673"/><feBlend in="SourceGraphic" in2="effect4_dropShadow_70_1673" result="shape"/></filter><filter id="p" width="650.267" height="787.839" x="-18.206" y="183.871" color-interpolation-filters="sRGB" filterUnits="userSpaceOnUse"><feFlood flood-opacity="0" result="BackgroundImageFix"/><feColorMatrix in="SourceAlpha" result="hardAlpha" values="0 0 0 0 0 0 0 0 0 0 0 0 0 0 0 0 0 0 127 0"/><feOffset dx="17.4323" dy="6.748"/><feGaussianBlur stdDeviation="20.2439"/><feColorMatrix values="0 0 0 0 0 0 0 0 0 0 0 0 0 0 0 0 0 0 0.1 0"/><feBlend in2="BackgroundImageFix" result="effect1_dropShadow_70_1673"/><feColorMatrix in="SourceAlpha" result="hardAlpha" values="0 0 0 0 0 0 0 0 0 0 0 0 0 0 0 0 0 0 127 0"/><feOffset dx="69.1668" dy="25.8673"/><feGaussianBlur stdDeviation="36.8327"/><feColorMatrix values="0 0 0 0 0 0 0 0 0 0 0 0 0 0 0 0 0 0 0.09 0"/><feBlend in2="effect1_dropShadow_70_1673" result="effect2_dropShadow_70_1673"/><feColorMatrix in="SourceAlpha" result="hardAlpha" values="0 0 0 0 0 0 0 0 0 0 0 0 0 0 0 0 0 0 127 0"/><feOffset dx="155.204" dy="58.4825"/><feGaussianBlur stdDeviation="49.7664"/><feColorMatrix values="0 0 0 0 0 0 0 0 0 0 0 0 0 0 0 0 0 0 0.05 0"/><feBlend in2="effect2_dropShadow_70_1673" result="effect3_dropShadow_70_1673"/><feColorMatrix in="SourceAlpha" result="hardAlpha" values="0 0 0 0 0 0 0 0 0 0 0 0 0 0 0 0 0 0 127 0"/><feOffset dx="276.105" dy="104.031"/><feGaussianBlur stdDeviation="59.0448"/><feColorMatrix values="0 0 0 0 0 0 0 0 0 0 0 0 0 0 0 0 0 0 0.01 0"/><feBlend in2="effect3_dropShadow_70_1673" result="effect4_dropShadow_70_1673"/><feBlend in="SourceGraphic" in2="effect4_dropShadow_70_1673" result="shape"/></filter><clipPath id="a"><path fill="#fff" d="M0 0h461.674v627H0z"/></clipPath></defs></svg>